<svg width="32" height="32" viewBox="0 0 32 32" fill="none" xmlns="http://www.w3.org/2000/svg">
<path d="M15.0834 7.66667C15.7725 7.66667 16.3334 8.2275 16.3334 8.91667V15.1875C16.3334 16.495 16.7617 17.0933 17.5092 17.7292C18.3509 18.4442 18.8334 19.4842 18.8334 20.5833C18.8334 22.6508 17.1509 24.3333 15.0834 24.3333C13.0159 24.3333 11.3334 22.6508 11.3334 20.5833C11.3334 19.4842 11.8159 18.4442 12.6584 17.7292C13.405 17.095 13.8334 16.4958 13.8334 15.1875V8.91667C13.8334 8.2275 14.3942 7.66667 15.0834 7.66667V7.66667ZM15.0834 6C13.4725 6 12.1667 7.30583 12.1667 8.91667V15.1875C12.1667 15.6767 11.9517 16.1417 11.5792 16.4583C10.41 17.4517 9.66669 18.9292 9.66669 20.5833C9.66669 23.575 12.0909 26 15.0834 26C18.0759 26 20.5 23.575 20.5 20.5833C20.5 18.9292 19.7567 17.4517 18.5875 16.4583C18.215 16.1417 18 15.6767 18 15.1875V8.91667C18 7.30583 16.6942 6 15.0834 6ZM16.8392 18.265C15.9959 17.5233 15.5 16.82 15.5 15.5817V10.1667H14.6667V15.5817C14.6667 16.8183 14.1692 17.525 13.3275 18.265C12.6659 18.8467 12.1667 19.6333 12.1667 20.5833C12.1667 22.1942 13.4725 23.5 15.0834 23.5C16.6942 23.5 18 22.1942 18 20.5833C18 19.6333 17.5009 18.8475 16.8392 18.265ZM26.3334 11H23.8334V8.5H22.1667V11H19.6667V12.6667H22.1667V15.1667H23.8334V12.6667H26.3334V11Z" fill="white"/>
<circle cx="16" cy="16" r="14.5" stroke="white" stroke-width="3"/>
</svg>
